<svg xmlns="http://www.w3.org/2000/svg" width="19" height="23" viewBox="0 0 19 23"><g><g><path fill="#d9050d" d="M5.903 10.934C4.19 8.866 4.475 5.322 4.506 4.984 4.617 2.428 5.756 1.214 6.69.646c.93-.566 1.9-.652 2.393-.652h.075c.899.023 1.704.247 2.393.674.925.567 2.046 1.78 2.157 4.318.031.337.316 3.88-1.396 5.949-.779.937-1.833 1.428-3.136 1.456h-.142c-1.303-.028-2.358-.519-3.131-1.456zm.894-.856c.556.677 1.307 1.017 2.286 1.023h.044c.983-.006 1.73-.346 2.29-1.023 1.415-1.702 1.104-4.942 1.1-4.974-.005-.01-.005-.025-.005-.04-.138-3.229-2.18-3.751-3.38-3.779h-.054c-.97 0-3.233.37-3.38 3.779 0 .01-.004.025-.004.04-.005.026-.307 3.28 1.103 4.974zm11.235 10.338a.608.608 0 0 1-.232.3c-.133.09-3.331 2.278-8.682 2.278-5.35 0-8.548-2.182-8.682-2.277a.584.584 0 0 1-.231-.3c-.236-.639-.231-1.91-.227-2.156v-.015c.005-.037.005-.074.005-.12.026-.939.084-3.142 2.015-3.855l.044-.013c2.015-.548 3.674-1.784 3.692-1.798a.57.57 0 0 1 .836.157.664.664 0 0 1-.147.89c-.076.056-1.846 1.38-4.06 1.99-1.037.396-1.153 1.582-1.184 2.668 0 .044-.004.081-.004.119-.01.426.022 1.09.093 1.47.725.44 3.567 1.958 7.846 1.958 4.296 0 7.12-1.512 7.841-1.95.071-.38.098-1.045.094-1.471-.005-.04-.005-.08-.005-.119-.03-1.088-.146-2.274-1.183-2.67-2.215-.61-3.985-1.93-4.06-1.989a.667.667 0 0 1-.147-.892.573.573 0 0 1 .836-.157c.017.015 1.685 1.25 3.691 1.8.014.004.031.007.045.012 1.93.708 1.988 2.911 2.015 3.855 0 .042.004.08.004.12v.017c.005.244.01 1.516-.213 2.148z"/></g></g></svg>