<svg xmlns="http://www.w3.org/2000/svg" width="21" height="24" viewBox="0 0 21 24"><g><g><path fill="#d9050d" d="M19.604 18.151c.427.56.612 1.184.539 1.804-.073.615-.394 1.179-.932 1.635-.234.198-.471.386-.702.562-.34.264-.663.513-.95.793-.006.013-.017.016-.022.024-.83.732-1.814 1.024-2.926.882-.096-.013-.202-.032-.302-.048-1.64-.318-3.042-1.149-4.085-1.832-2.727-1.821-5.021-4.2-6.821-7.077C1.92 12.51.995 10.346.473 8.067.26 7.136.007 5.73.295 4.289a3.678 3.678 0 0 1 1.32-2.184L3.455.602l.011-.01c.539-.417 1.137-.6 1.725-.524.587.074 1.116.4 1.526.94.278.336.544.693.796 1.042.126.179.26.358.392.53l1.153 1.53c.887 1.17.726 2.527-.41 3.445-.15.12-.302.251-.454.373-.401.33-.813.672-1.252.993.214.71.54 1.429 1.048 2.289 1.055 1.738 2.206 3.126 3.52 4.24.13.113.283.217.446.33.113.076.23.159.347.246l1.708-1.376c.547-.447 1.146-.633 1.738-.56.598.075 1.13.417 1.537.98zm-1.036.824L16.24 15.89c-.005-.003-.005-.003-.009-.008-.13-.189-.352-.413-.65-.455-.304-.034-.588.137-.772.285l-1.85 1.495c-.091.075-.372.305-.772.253a1.031 1.031 0 0 1-.462-.188c-.018-.009-.036-.029-.054-.041a6.076 6.076 0 0 0-.445-.323 6.796 6.796 0 0 1-.553-.41c-1.426-1.207-2.67-2.707-3.799-4.575l-.004-.004c-.618-1.054-1.004-1.922-1.244-2.823l-.01-.047c-.052-.293-.08-.725.385-1.102.006-.011.017-.014.028-.018.465-.337.897-.69 1.353-1.063.156-.122.308-.25.465-.38.573-.46.63-.95.183-1.544L6.876 3.418c-.134-.185-.27-.366-.4-.544a21.916 21.916 0 0 0-.76-1c-.005-.01-.01-.012-.013-.019-.136-.18-.359-.402-.662-.442-.246-.028-.51.063-.774.264L2.423 3.166c-.45.363-.723.82-.84 1.398-.181.904-.132 1.888.169 3.19.486 2.127 1.36 4.158 2.758 6.419 1.698 2.706 3.861 4.952 6.426 6.662.938.62 2.199 1.366 3.618 1.645.071.012.149.022.22.033.752.092 1.355-.084 1.906-.566.341-.325.698-.605 1.048-.877a17.558 17.558 0 0 0 .66-.533c.553-.466.615-.988.18-1.562zm-.18 1.562l-.002.001.001-.001z"/></g></g></svg>