<svg xmlns="http://www.w3.org/2000/svg" xmlns:xlink="http://www.w3.org/1999/xlink" width="60" height="60" viewBox="0 0 60 60"><defs><path id="sh59a" d="M1394 8904.014v44.53a4.459 4.459 0 0 1-4.454 4.454h-51.093a4.458 4.458 0 0 1-4.453-4.453v-3.032c0-.647.525-1.172 1.172-1.172h3.17a9.586 9.586 0 0 1-3.348-7.28c0-5.298 4.31-9.61 9.609-9.61s9.61 4.312 9.61 9.61c0 2.908-1.301 5.517-3.349 7.28h11.71a1.173 1.173 0 0 1 0 2.344h-26.23v1.86c0 1.163.946 2.11 2.11 2.11h47.17a4.427 4.427 0 0 1-.532-2.11v-1.86h-12.46a1.172 1.172 0 1 1 0-2.344h13.632c.647 0 1.172.525 1.172 1.172v3.032c0 1.163.947 2.11 2.11 2.11 1.164 0 2.11-.947 2.11-2.11v-44.531a3.52 3.52 0 0 0-3.515-3.515h-5.586v1.465a3.52 3.52 0 0 1-3.516 3.515 3.52 3.52 0 0 1-3.516-3.515v-1.465h-19.687v1.465a3.52 3.52 0 0 1-3.516 3.515 3.52 3.52 0 0 1-3.515-3.515v-1.509c-.1.027-.204.044-.313.044h-4.669a3.52 3.52 0 0 0-3.516 3.515v3.867h42.248a1.173 1.173 0 0 1 0 2.343h-42.248v13.752a1.172 1.172 0 0 1-2.343 0v-19.962a5.865 5.865 0 0 1 5.86-5.859h4.668c.109 0 .213.015.313.043v-1.684a3.52 3.52 0 0 1 3.515-3.516 3.52 3.52 0 0 1 3.516 3.516v1.641h19.688v-1.64a3.52 3.52 0 0 1 3.515-3.517 3.52 3.52 0 0 1 3.516 3.516v1.641h5.586c3.23 0 5.86 2.628 5.86 5.859zm-40.508-7.5a1.173 1.173 0 0 0-2.344 0v5.45c0 .646.526 1.172 1.172 1.172.646 0 1.172-.526 1.172-1.172zm26.719 0a1.173 1.173 0 0 0-2.344 0v5.45c0 .646.526 1.172 1.172 1.172.646 0 1.172-.526 1.172-1.172zm-35.608 47.812c4.006 0 7.266-3.259 7.266-7.265 0-4.007-3.26-7.265-7.266-7.265s-7.266 3.258-7.266 7.265c0 4.006 3.26 7.265 7.266 7.265zm44.62-35.272c0 .307-.125.61-.343.828a1.18 1.18 0 0 1-.829.342 1.18 1.18 0 0 1-.828-.342 1.18 1.18 0 0 1-.343-.828c0-.31.125-.612.343-.829.218-.218.52-.344.828-.344a1.178 1.178 0 0 1 1.172 1.173zm-19.882 36.458c0 .308-.125.61-.343.83a1.178 1.178 0 0 1-1.657 0 1.186 1.186 0 0 1-.343-.83c0-.308.125-.609.343-.827.218-.219.52-.344.828-.344a1.177 1.177 0 0 1 1.172 1.171zm-4.375-12.435a4.458 4.458 0 0 1-4.453 4.452 4.458 4.458 0 0 1-4.453-4.452 4.458 4.458 0 0 1 4.453-4.454 4.458 4.458 0 0 1 4.453 4.454zm-2.344 0c0-1.164-.946-2.11-2.109-2.11s-2.11.946-2.11 2.11c0 1.163.947 2.11 2.11 2.11 1.163 0 2.11-.947 2.11-2.11zm13.282 0a4.458 4.458 0 0 1-4.453 4.452 4.458 4.458 0 0 1-4.454-4.452 4.458 4.458 0 0 1 4.454-4.454 4.458 4.458 0 0 1 4.453 4.454zm-2.344 0c0-1.164-.946-2.11-2.11-2.11-1.163 0-2.109.946-2.109 2.11 0 1.163.946 2.11 2.11 2.11 1.163 0 2.109-.947 2.109-2.11zm13.281 0a4.458 4.458 0 0 1-4.453 4.452 4.458 4.458 0 0 1-4.453-4.452 4.458 4.458 0 0 1 4.453-4.454 4.458 4.458 0 0 1 4.453 4.454zm-2.344 0c0-1.164-.946-2.11-2.109-2.11s-2.11.946-2.11 2.11c0 1.163.947 2.11 2.11 2.11 1.163 0 2.11-.947 2.11-2.11zm-30.468-12.188a4.459 4.459 0 0 1-4.453 4.454 4.459 4.459 0 0 1-4.454-4.454 4.459 4.459 0 0 1 4.454-4.453 4.459 4.459 0 0 1 4.453 4.453zm-2.344 0a2.111 2.111 0 0 0-2.11-2.11c-1.163 0-2.109.946-2.109 2.11 0 1.163.946 2.11 2.11 2.11 1.163 0 2.109-.947 2.109-2.11zm24.219 0a4.459 4.459 0 0 1-4.453 4.454 4.459 4.459 0 0 1-4.454-4.454 4.459 4.459 0 0 1 4.454-4.453 4.459 4.459 0 0 1 4.453 4.453zm-2.344 0a2.111 2.111 0 0 0-2.11-2.11c-1.163 0-2.109.946-2.109 2.11 0 1.163.946 2.11 2.11 2.11 1.163 0 2.109-.947 2.109-2.11zm13.281 0a4.459 4.459 0 0 1-4.453 4.454 4.459 4.459 0 0 1-4.453-4.454 4.459 4.459 0 0 1 4.453-4.453 4.459 4.459 0 0 1 4.453 4.453zm-2.344 0a2.111 2.111 0 0 0-2.109-2.11c-1.163 0-2.11.946-2.11 2.11 0 1.163.947 2.11 2.11 2.11 1.163 0 2.11-.947 2.11-2.11zm-19.53 0a4.459 4.459 0 0 1-4.454 4.454 4.459 4.459 0 0 1-4.453-4.454 4.459 4.459 0 0 1 4.453-4.453 4.459 4.459 0 0 1 4.453 4.453zm-2.345 0a2.111 2.111 0 0 0-2.109-2.11c-1.163 0-2.11.946-2.11 2.11 0 1.163.947 2.11 2.11 2.11 1.163 0 2.11-.947 2.11-2.11zm-13.844 14.973l-4.645 4.646a1.174 1.174 0 0 1-1.658 0l-2.133-2.133a1.173 1.173 0 0 1 1.658-1.658l1.304 1.304 3.816-3.816a1.171 1.171 0 1 1 1.658 1.657z"/></defs><g><g transform="translate(-1334 -8893)"><use fill="#fa4f01" xlink:href="#sh59a"/></g></g></svg>